<?xml version="1.0" encoding="utf-8"?>
<!-- Generator: Adobe Illustrator 25.4.1, SVG Export Plug-In . SVG Version: 6.00 Build 0)  -->
<svg version="1.1" id="Layer_1" xmlns="http://www.w3.org/2000/svg" xmlns:xlink="http://www.w3.org/1999/xlink" x="0px" y="0px"
	 viewBox="0 0 288.9 359.2" style="enable-background:new 0 0 288.9 359.2;" xml:space="preserve">
<style type="text/css">
	.st0{fill:#008BF5;}
	.st1{fill:#006FC4;}
	.st2{fill:#FEFEFE;}
</style>
<g>
	<path class="st0" d="M288.2,113.7c1.1,1.1,0.6,2.6,0.6,3.9c0,68.1,0,136.1,0,204.2c0,22.3-15,37.4-37.2,37.4
		c-71.4,0-142.9,0-214.3,0C15.1,359.2,0,344.1,0,321.9C0,227,0,132.2,0,37.3c0-22,15.1-37.2,37-37.2c47,0,94,0,141,0c1,0,2,0,3,0.1
		c0,23.8,0,47.6,0.1,71.3c0,7.5-0.3,14.9,0.5,22.3c1.2,10.5,11,19.9,21.7,20c15.7,0.1,31.4,0,47.1,0
		C263,113.8,275.6,113.7,288.2,113.7z"/>
	<path class="st1" d="M288.2,113.7c-12.6,0-25.1,0.1-37.7,0.1c-15.7,0-31.4,0.1-47.1,0c-10.7-0.1-20.5-9.5-21.7-20
		c-0.8-7.5-0.5-14.9-0.5-22.4c-0.1-23.8-0.1-47.6-0.1-71.3c1.2,0,1.6,1,2.3,1.7C217.7,38.1,252,74.5,286.3,111
		C286.9,111.9,287.6,112.8,288.2,113.7z"/>
	<g>
		<path class="st2" d="M49.9,208.3c18.9,0,28.4,17.4,28.4,34.6c0,17.2-11.4,34-30,34H32.4c-5.5,0-7.4-1.1-7.4-7.4v-53.2
			c0-5.4,2.8-7.9,8.8-7.9L49.9,208.3L49.9,208.3z M39.2,262.8h8.7c10.4,0,16-9.8,16-19.8c0-10.4-5-20.5-14.8-20.5h-9.9L39.2,262.8
			L39.2,262.8z"/>
		<path class="st2" d="M143.9,242.1c0,17.8-10.1,35.6-30.5,35.6c-20,0-30-17.8-30-35.8c0-17.7,10-35.6,30-35.6
			C133.9,206.3,143.9,224.3,143.9,242.1z M98,241.7c0,10.9,5.3,22,15.7,22c10.7,0,15.9-10.6,15.9-21.4c0-10.9-5.3-21.7-16-21.7
			C103,220.6,98,231,98,241.7z"/>
		<path class="st2" d="M202.2,213.9c1.8,1.7,2.7,3.8,2.7,6c0,4.5-3,7.3-6.9,7.3c-1.8,0-4.1-0.8-5.4-2c-2.7-2.9-6.8-4.2-10.8-4.2
			c-11.6,0-17.3,10.4-17.3,20.9c0,10.8,5.9,20.9,17.4,20.9c4,0,7.9-0.9,10.7-3.8c1.6-1.7,3-2.1,4.8-2.1c5,0,7.1,3.5,7.1,7.2
			c0,2.3-0.7,4.3-2.6,6.1c-5.7,5.2-12.4,7.9-20.1,7.9c-21.3,0-31.9-17.7-31.9-35.7s10.8-36.1,32.3-36.1
			C189.6,206.2,196.4,208.5,202.2,213.9z"/>
		<path class="st2" d="M262.4,215.3c0,1.5-0.6,2.9-1.4,4.1l-13.1,19.3l17.5,26.7c1.1,1.8,1.8,3.5,1.8,5.3c0,4.2-2.1,6.3-6.3,6.3
			c-2.6,0-4.9-1-6.7-3.5l-14.8-21.8l-13.7,21.6c-1.5,2.5-3.8,3.7-6.7,3.7c-4.3,0-6.3-2.1-6.3-6.4c0-1.8,0.5-3.5,1.5-5l16.7-25.9
			l-14.4-20.2c-0.9-1.3-1.5-2.7-1.5-4.4c0-4.1,3.3-6.9,7-6.9c2.5,0,4.5,0.9,6.1,3.1l11.3,15.8c3.4-5.4,6.7-10.2,10-15.4
			c1.5-2.2,3.5-3.4,6-3.4C259.1,208.3,262.4,211.3,262.4,215.3z"/>
	</g>
</g>
</svg>
