<svg id="Layer_1" data-name="Layer 1" xmlns="http://www.w3.org/2000/svg" viewBox="0 0 288.9 359.19"><defs><style>.cls-1{fill:#e4252a;}.cls-2{fill:#ec6669;}.cls-3{fill:#fefefe;}</style></defs><path class="cls-1" d="M-445.34,280.3c1.15,1.15.6,2.6.6,3.9q0,102.1,0,204.22c0,22.31-15,37.39-37.21,37.39q-107.15,0-214.3,0c-22.19,0-37.27-15.09-37.27-37.33q0-142.3,0-284.63c0-22,15.08-37.19,37-37.2q70.5,0,141,0c1,0,2,0,3,.09,0,23.78,0,47.56.14,71.34,0,7.45-.3,14.89.55,22.35,1.2,10.52,11,19.92,21.68,20,15.69.09,31.38,0,47.06,0C-470.48,280.42-457.91,280.35-445.34,280.3ZM-610.73,407.69c0,10.72.06,21.44,0,32.15,0,2.23.48,3,2.87,3,7.22-.17,14.45.05,21.67-.1a31,31,0,0,0,28.48-20c2.53-6.57,2.7-13.41,2.22-20.26C-556.61,387-566.79,375.51-582,373c-8.38-1.41-16.91-.19-25.36-.63-3-.16-3.43.95-3.4,3.59C-610.64,386.51-610.73,397.1-610.73,407.69Zm-64.4-.08c0,10.7.08,21.41-.06,32.12,0,2.46.67,3.21,3.11,3.08a104.61,104.61,0,0,1,11.2,0c2.42.14,2.9-.78,2.85-3-.13-6.1,0-12.21-.09-18.3,0-2.12.61-2.8,2.73-2.72,3.85.13,7.72.14,11.57-.06,11.78-.59,20.71-6.8,23.26-16,3.79-13.75-4.54-27.11-18.77-29.49-11.23-1.87-22.62-.44-33.92-.84-2.27-.08-1.87,1.42-1.87,2.73Q-675.13,391.36-675.13,407.61Zm128.54.1c0,10.73.06,21.45,0,32.17,0,2.27.54,3.07,2.89,2.94a87.13,87.13,0,0,1,10.84,0c2.77.19,3.27-.91,3.21-3.39-.15-7.23,0-14.47-.1-21.7,0-2.28.66-3.06,3-3,4.86.15,9.73.12,14.59,0,3.21-.07,7.41,1.4,9.35-.64s.31-6.19.61-9.39c.22-2.41-.54-3.2-3.05-3.14-7.23.17-14.46,0-21.69.1-2.11,0-2.87-.57-2.77-2.73.15-3.36.17-6.74,0-10.09-.13-2.54.61-3.54,3.32-3.45,5.73.19,11.47.06,17.2.06,9.92,0,9.81,0,9.84-9.91,0-2.75-.94-3.25-3.43-3.23-13.46.11-26.93.16-40.39,0-3-.05-3.42,1-3.39,3.6C-546.51,386.51-546.59,397.11-546.59,407.71Z" transform="translate(733.51 -166.64)"/><path class="cls-2" d="M-445.34,280.3c-12.57.05-25.14.12-37.72.14-15.68,0-31.37.06-47.06,0-10.68-.06-20.48-9.46-21.68-20-.85-7.46-.51-14.9-.55-22.35-.12-23.78-.1-47.56-.14-71.34,1.19,0,1.63,1,2.28,1.74Q-498.76,223-447.35,277.64A29.41,29.41,0,0,1-445.34,280.3Z" transform="translate(733.51 -166.64)"/><path class="cls-3" d="M-610.73,407.69c0-10.59.09-21.18-.06-31.77,0-2.64.42-3.75,3.4-3.59,8.45.44,17-.78,25.36.63,15.24,2.55,25.42,14,26.49,29.47.48,6.85.31,13.69-2.22,20.26a31,31,0,0,1-28.48,20c-7.22.15-14.45-.07-21.67.1-2.39.05-2.89-.75-2.87-3C-610.67,429.13-610.73,418.41-610.73,407.69Zm17.07-.25c0,6.47,0,12.94,0,19.4,0,1.08-.64,2.47,1.28,3a15.38,15.38,0,0,0,18.16-10.08c2.06-6.4,2.05-13,1.05-19.56-1.7-11-6.76-15-17.72-14.79-2.39,0-2.89.83-2.85,3C-593.58,394.75-593.66,401.1-593.66,407.44Z" transform="translate(733.51 -166.64)"/><path class="cls-3" d="M-675.13,407.61q0-16.26,0-32.5c0-1.31-.4-2.81,1.87-2.73,11.3.4,22.69-1,33.92.84,14.23,2.38,22.56,15.74,18.77,29.49-2.55,9.23-11.48,15.44-23.26,16-3.85.2-7.72.19-11.57.06-2.12-.08-2.77.6-2.73,2.72.13,6.09,0,12.2.09,18.3,0,2.21-.43,3.13-2.85,3a104.61,104.61,0,0,0-11.2,0c-2.44.13-3.14-.62-3.11-3.08C-675,429-675.13,418.31-675.13,407.61Zm23.86-22.16c-1.62,0-3.23.05-4.85,0-1.44-.06-2,.55-2,2q.06,8.19,0,16.4c0,1.35.39,2.1,1.9,2,4.09-.14,8.2.32,12.27-.45a7.9,7.9,0,0,0,6.55-5.85c2.19-7.34-2.2-13.67-9.81-14.09C-648.53,385.4-649.9,385.46-651.27,385.45Z" transform="translate(733.51 -166.64)"/><path class="cls-3" d="M-546.59,407.71c0-10.6.08-21.2-.06-31.79,0-2.64.4-3.65,3.39-3.6,13.46.18,26.93.13,40.39,0,2.49,0,3.44.48,3.43,3.23,0,9.91.08,9.91-9.84,9.91-5.73,0-11.47.13-17.2-.06-2.71-.09-3.45.91-3.32,3.45.18,3.35.16,6.73,0,10.09-.1,2.16.66,2.76,2.77,2.73,7.23-.11,14.46.07,21.69-.1,2.51-.06,3.27.73,3.05,3.14-.3,3.2,1.3,7.38-.61,9.39s-6.14.57-9.35.64c-4.86.1-9.73.13-14.59,0-2.31-.07-3,.71-3,3,.13,7.23-.05,14.47.1,21.7.06,2.48-.44,3.58-3.21,3.39a87.13,87.13,0,0,0-10.84,0c-2.35.13-2.92-.67-2.89-2.94C-546.53,429.16-546.59,418.44-546.59,407.71Z" transform="translate(733.51 -166.64)"/><path class="cls-1" d="M-593.66,407.44c0-6.34.08-12.69-.05-19,0-2.2.46-3,2.85-3,11-.2,16,3.79,17.72,14.79,1,6.55,1,13.16-1.05,19.56a15.38,15.38,0,0,1-18.16,10.08c-1.92-.5-1.27-1.89-1.28-3C-593.69,420.38-593.66,413.91-593.66,407.44Z" transform="translate(733.51 -166.64)"/><path class="cls-1" d="M-651.27,385.46c1.37,0,2.74-.06,4.1,0,7.61.42,12,6.75,9.81,14.09a7.9,7.9,0,0,1-6.55,5.85c-4.07.77-8.18.31-12.27.45-1.51.06-1.91-.69-1.9-2q0-8.2,0-16.4c0-1.43.53-2,2-2C-654.5,385.5-652.89,385.45-651.27,385.46Z" transform="translate(733.51 -166.64)"/></svg>