<?xml version="1.0" encoding="utf-8"?>
<!-- Generator: Adobe Illustrator 25.4.1, SVG Export Plug-In . SVG Version: 6.00 Build 0)  -->
<svg version="1.1" id="Layer_1" xmlns="http://www.w3.org/2000/svg" xmlns:xlink="http://www.w3.org/1999/xlink" x="0px" y="0px"
	 viewBox="0 0 288.9 359.2" style="enable-background:new 0 0 288.9 359.2;" xml:space="preserve">
<style type="text/css">
	.st0{fill:#AFAEFA;}
	.st1{fill:#8987F9;}
	.st2{fill:#FEFEFE;}
</style>
<g>
	<path class="st0" d="M288.2,113.6c1.2,1.1,0.6,2.6,0.6,3.9c0,68.1,0,136.1,0,204.2c0,22.3-15,37.4-37.2,37.4
		c-71.4,0-142.9,0-214.3,0C15.1,359.2,0,344.1,0,321.9C0,227,0,132.2,0,37.3c0-22,15.1-37.2,37-37.2c47,0,94,0,141,0c1,0,2,0,3,0.1
		c0,23.8,0,47.6,0.1,71.3c0,7.5-0.3,14.9,0.5,22.3c1.2,10.5,11,19.9,21.7,20c15.7,0.1,31.4,0,47.1,0
		C263,113.8,275.6,113.6,288.2,113.6z"/>
	<path class="st1" d="M288.2,113.6c-12.6,0-25.1,0.1-37.7,0.1c-15.7,0-31.4,0.1-47.1,0c-10.7-0.1-20.5-9.5-21.7-20
		c-0.8-7.5-0.5-14.9-0.5-22.4c-0.1-23.8-0.1-47.6-0.1-71.3c1.2,0,1.6,1,2.3,1.7C217.7,38,252,74.4,286.3,110.9
		C286.9,111.9,287.6,112.8,288.2,113.6z"/>
	<g>
		<path class="st2" d="M81.8,211.7c13,0,22.3,8.9,22.3,21.7c0,12.2-9.4,21.4-21.9,21.4H70.5v16c0,4.6-2.3,6.9-6.8,6.9
			s-6.8-2.3-6.8-6.9v-52.1c0-4.9,2.5-7.1,7.1-7.1h17.8V211.7z M70.5,241.3H82c5,0,8.3-3,8.3-8c0-5.1-3.3-8.1-9.6-8.1H70.5V241.3z"/>
		<path class="st2" d="M126.8,216.2l23.4,34.7v-32.2c0-4.6,2.2-6.9,6.7-6.9c4.6,0,6.9,2.3,6.9,6.9v51.7c0,4.9-2.3,7.4-6.8,7.4
			c-2.9,0-5.2-1.3-7.1-4l-23.6-34.6v31.7c0,4.6-2.3,7-6.8,7c-4.4,0-6.7-2.4-6.7-7V219c0-4.8,2.2-7.4,6.7-7.4
			C122.4,211.7,124.9,213.2,126.8,216.2z"/>
		<path class="st2" d="M226,223c0,4.3-2.8,6.8-6,6.8c-1.9,0-3.6-0.7-5.2-2.2c-3.9-3.4-7.8-4.2-11.1-4.2c-10.7,0-16,10.1-16,22
			c0,9.8,5.2,19.4,15.4,19.4c7.8,0,12.4-4.8,13.2-12.8H204c-4.9,0-7.4-2.2-7.4-6.7c0-4.6,2.5-6.9,7.6-6.9h17.1c8,0,8.9,5.2,8.9,10.9
			c0,17.2-10.6,29.4-27.4,29.4c-19.9,0-29.5-16.5-29.5-33.3c0-18.7,10.1-36.1,30.6-36.1C214,209.4,226,215.1,226,223z"/>
	</g>
</g>
</svg>
