<?xml version="1.0" encoding="utf-8"?>
<!-- Generator: Adobe Illustrator 25.4.1, SVG Export Plug-In . SVG Version: 6.00 Build 0)  -->
<svg version="1.1" id="Layer_1" xmlns="http://www.w3.org/2000/svg" xmlns:xlink="http://www.w3.org/1999/xlink" x="0px" y="0px"
	 viewBox="0 0 288.9 359.2" style="enable-background:new 0 0 288.9 359.2;" xml:space="preserve">
<style type="text/css">
	.st0{fill:#4EB3F2;}
	.st1{fill:#0077CC;}
	.st2{fill:#FEFEFE;}
</style>
<g>
	<path class="st0" d="M288.2,113.6c1.2,1.1,0.6,2.6,0.6,3.9c0,68.1,0,136.1,0,204.2c0,22.3-15,37.4-37.2,37.4
		c-71.4,0-142.9,0-214.3,0C15.1,359.2,0,344.1,0,321.9C0,227,0,132.2,0,37.3c0-22,15.1-37.2,37-37.2c47,0,94,0,141,0c1,0,2,0,3,0.1
		c0,23.8,0,47.6,0.1,71.3c0,7.5-0.3,14.9,0.5,22.3c1.2,10.5,11,19.9,21.7,20c15.7,0.1,31.4,0,47.1,0
		C263,113.8,275.6,113.6,288.2,113.6z"/>
	<path class="st1" d="M288.2,113.6c-12.6,0-25.1,0.1-37.7,0.1c-15.7,0-31.4,0.1-47.1,0c-10.7-0.1-20.5-9.5-21.7-20
		c-0.8-7.5-0.5-14.9-0.5-22.4c-0.1-23.8-0.1-47.6-0.1-71.3c1.2,0,1.6,1,2.3,1.7C217.7,38,252,74.4,286.3,110.9
		C286.9,111.9,287.6,112.8,288.2,113.6z"/>
	<g>
		<path class="st2" d="M100.1,218.5v0.5c0,0.2,0,0.5-0.2,1c-3,17.1-6.2,33.5-9.3,50.6c-0.7,4.3-4.5,7.1-8.8,7.1
			c-3.5,0-7.1-1.9-8.4-6.6l-8.7-31.7L57,269.9c-1.4,5.5-5.2,7.9-8.9,7.9c-3.9,0-7.9-3-8.8-7.7l-10-51.7c0-4.3,3.4-6.9,7-6.9
			c3.9,0,6.2,2.3,7,6.2l6,32.9c3-10.1,5-23,7.7-33.1c1.1-3.9,3.8-5.9,8-5.9c4.2,0,6.8,2,7.9,5.9l8.3,32.6l4.9-32.1
			c0.6-4.2,2.9-6.4,7.1-6.4C96.9,211.6,100.1,214.4,100.1,218.5z"/>
		<path class="st2" d="M141,211.8c4.7,0,6.8,2.1,6.8,6.8c0,4.5-2.3,6.8-6.8,6.8h-17.5v11.5h13.7c4.4,0,6.7,2.2,6.7,6.8
			c0,4.5-2.3,6.7-6.7,6.7h-13.7v13.7h18c4.9,0,7.4,2.3,7.4,6.8s-2.5,6.8-7.4,6.8h-24.4c-6.3,0-7.1-1.6-7.1-7.5v-51.1
			c0-4.9,2.3-7.4,7.1-7.4H141V211.8z"/>
		<path class="st2" d="M177.6,211.8c8,0,20.7,4.8,20.7,17.7c0,4.3-4.3,11.2-8,11.5c7.1,1.1,12.5,9.7,12.5,16.6
			c0,11.8-9.5,20.2-20.6,20.2h-18.7c-2.5,0-4.3-0.3-5.7-1.3c-1.6-1.1-2.8-3.4-2.8-6.4v-50.6c0-5.1,2.4-7.6,7.1-7.6h15.5V211.8z
			 M168.7,237.8h9.9c4.5,0,6.7-2.8,6.7-5.9c0-3.2-2.4-6.5-7.4-6.5h-9.3L168.7,237.8L168.7,237.8z M168.7,264.1h12.9
			c5.2,0,8-3.6,8-7.1c0-4.2-3.4-8.5-10.7-8.5h-10.1v15.6H168.7z"/>
		<path class="st2" d="M235.7,211.7c13,0,22.3,8.9,22.3,21.7c0,12.2-9.4,21.4-21.9,21.4h-11.8v16c0,4.6-2.3,6.9-6.8,6.9
			s-6.8-2.3-6.8-6.9v-52.1c0-4.9,2.5-7.1,7.1-7.1h17.9V211.7z M224.3,241.3h11.5c5,0,8.3-3,8.3-8c0-5.1-3.3-8.1-9.6-8.1h-10.2V241.3
			z"/>
	</g>
</g>
</svg>
