<?xml version="1.0" encoding="utf-8"?>
<!-- Generator: Adobe Illustrator 25.4.1, SVG Export Plug-In . SVG Version: 6.00 Build 0)  -->
<svg version="1.1" id="Layer_1" xmlns="http://www.w3.org/2000/svg" xmlns:xlink="http://www.w3.org/1999/xlink" x="0px" y="0px"
	 viewBox="0 0 595.28 841.89" style="enable-background:new 0 0 595.28 841.89;" xml:space="preserve">
<style type="text/css">
	.st0{fill:#1EAAE2;}
</style>
<path class="st0" d="M314.18-309.09c0-2.7-0.07-4.9,0.01-7.09c0.22-5.79,4.71-10.42,10.4-10.81c5.47-0.38,10.45,3.48,11.5,9.11
	c0.34,1.82,0.36,3.72,0.35,5.58c-0.15,29.44-0.34,58.87-0.46,88.31c-0.01,2.21,0.17,4.52,0.77,6.63c2.22,7.82,8.28,11.39,16.31,9.9
	c7.22-1.34,12.93-5.05,17.12-11.05c6.5-9.3,9.53-19.97,11.3-30.94c6.75-41.74-20.1-77.52-53.48-92.33
	c-55.75-24.73-118.5,6.77-132.47,66.27c-11.8,50.27,21.83,103.19,72.48,113.83c5.82,1.22,11.8,1.8,17.74,2.28
	c6.53,0.53,11.49,5.4,11.24,11.59c-0.25,6.17-5.58,11.07-12.05,10.74c-38.04-1.94-68.69-17.95-91.29-48.69
	c-17.22-23.41-24.61-49.9-22.28-78.78c3.94-48.78,38.5-90.23,85.76-103.63c61.3-17.38,126.04,18.03,144.22,79.15
	c6.64,22.33,3.92,44.3-3.97,65.92c-5.28,14.48-13.6,26.29-27.69,33.3c-7.84,3.9-16.22,5.78-24.96,4.72
	c-12.67-1.54-21.28-8.95-27.25-20.09c-0.59,0.37-1.16,0.61-1.57,1.01c-21.9,21.2-53.43,17.26-72.32-5.76
	c-22.34-27.22-20.31-71.48,4.47-94.88c17.41-16.45,43.97-19.97,64.08-5.41C312.61-309.89,313.15-309.66,314.18-309.09z
	 M250.44-258.52c-0.01,14.72,3.2,25.86,11.12,35.38c11.84,14.23,29.68,14.2,41.44-0.02c12.5-15.11,14.49-42.17,4.38-59.58
	c-8.62-14.84-25.66-18.87-39.82-9.13C255.06-283.28,250.65-270.6,250.44-258.52z"/>
</svg>
