<?xml version="1.0" encoding="utf-8"?>
<!-- Generator: Adobe Illustrator 25.4.1, SVG Export Plug-In . SVG Version: 6.00 Build 0)  -->
<svg version="1.1" id="Layer_1" xmlns="http://www.w3.org/2000/svg" xmlns:xlink="http://www.w3.org/1999/xlink" x="0px" y="0px"
	 viewBox="0 0 595.28 841.89" style="enable-background:new 0 0 595.28 841.89;" xml:space="preserve">
<style type="text/css">
	.st0{fill:#1EAAE2;}
</style>
<path class="st0" d="M194.02-67.66c-3.73-3.49-7.45-6.97-10.86-10.15c27.87-28.02,55.18-55.49,82.8-83.27
	c12.04,12.14,24.23,24.47,36.46,36.76c10.03,10.08,20.06,20.16,30.23,30.1c1.94,1.9,2.22,3.46,1.14,5.84
	c-4.68,10.29-12.4,16.94-23.31,19.91c-0.67,0.18-1.29,0.54-1.94,0.82C270.37-67.66,232.2-67.66,194.02-67.66z"/>
<path class="st0" d="M71.26-67.66c-7.54-2.06-14.54-5.04-19.84-11.14c-5.71-6.57-8.81-14.09-8.54-22.84
	c0.04-1.22,0.56-2.72,1.39-3.56c13.22-13.4,26.52-26.72,40.17-40.43c26.16,26.1,52.15,52.04,78.14,77.97
	C132.14-67.66,101.7-67.66,71.26-67.66z"/>
<path class="st0" d="M189.74-451.43c46.61,0.55,85.79,33.4,93.9,79.52c4.11,23.36,0.16,45.52-12.46,65.65
	c-23.63,37.69-47.62,75.14-71.53,112.65c-5.37,8.42-14.94,8.32-20.34-0.16c-23.62-37.09-47.43-74.07-70.71-111.37
	c-35.22-56.42-3.55-130.3,61.52-143.93C176.55-450.42,183.2-450.67,189.74-451.43z M189.52-401.03
	c-25.02,0.01-45.55,20.35-45.64,45.22c-0.09,24.97,20.6,45.65,45.67,45.65c25.06,0,45.76-20.72,45.64-45.68
	C235.08-380.74,214.57-401.04,189.52-401.03z"/>
<path class="st0" d="M167.67-94.6c-22.53-22.69-44.55-44.87-66.16-66.62c14.31-14.35,28.98-29.06,43.73-43.86
	c4.93,7.75,10,15.73,15.09,23.7c14.48,22.63,44.02,22.66,58.4,0.05c22.86-35.94,45.83-71.82,68.5-107.89
	c4.68-7.44,8.17-15.63,12.4-23.37c0.6-1.1,2.29-2.31,3.47-2.3c18.41,0.15,33.06,15.02,33.13,33.46c0.02,5.98,1.55,12.64-0.57,17.77
	c-2.12,5.12-7.91,8.74-12.14,12.96C272.42-199.67,221.3-148.65,170.2-97.62C169.32-96.74,168.59-95.71,167.67-94.6z"/>
<path class="st0" d="M132.3-225.38c-29.73,29.91-59.24,59.6-89.21,89.74c-0.11-1.53-0.26-2.55-0.26-3.58
	c-0.01-47.49-0.04-94.99,0.01-142.48c0.02-18.26,15.26-33.41,33.36-33.22c1.06,0.01,2.74,0.93,3.08,1.82
	c5.24,13.89,13.82,25.87,21.66,38.26c9.92,15.68,19.89,31.32,29.84,46.98C131.36-226.95,131.91-226.01,132.3-225.38z"/>
<path class="st0" d="M282.32-177.43c17.48-17.56,35.41-35.58,53.62-53.86c0,36.25,0,72.26,0,107.83
	C318.21-141.3,300.26-159.37,282.32-177.43z"/>
<path class="st0" d="M189.38-332.49c-13.12-0.08-23.16-10.4-23.05-23.69c0.11-12.48,10.76-22.87,23.36-22.77
	c12.93,0.1,23.14,10.66,23.03,23.84C212.63-342.5,202.22-332.41,189.38-332.49z"/>
</svg>
