<?xml version="1.0" encoding="utf-8"?>
<!-- Generator: Adobe Illustrator 25.4.1, SVG Export Plug-In . SVG Version: 6.00 Build 0)  -->
<svg version="1.1" id="Layer_1" xmlns="http://www.w3.org/2000/svg" xmlns:xlink="http://www.w3.org/1999/xlink" x="0px" y="0px"
	 viewBox="0 0 595.28 841.89" style="enable-background:new 0 0 595.28 841.89;" xml:space="preserve">
<style type="text/css">
	.st0{fill:#1EAAE2;}
	.st1{fill:#FFFFFF;}
</style>
<path class="st0" d="M649.63-176.65c0,31.25-0.29,62.51,0.14,93.76c0.17,12.64-8.94,23.05-22.92,22.96
	c-33.82-0.22-67.64-0.22-101.45,0c-13.82,0.09-22.97-10.23-22.9-22.98c0.32-62.75,0.32-125.51,0-188.26
	c-0.06-12.69,9.06-23.05,22.92-22.96c33.82,0.24,67.64,0.23,101.45,0c13.86-0.09,23.08,10.21,22.9,22.97
	C649.34-239.66,649.63-208.16,649.63-176.65z M520.26-177.41c0,31.25-0.01,62.49,0.01,93.74c0,5.05,0.61,5.65,5.52,5.65
	c33.56,0,67.12,0,100.69,0c4.91,0,5.54-0.62,5.54-5.64c0.01-62.24,0.01-124.49,0-186.73c0-5.06-0.59-5.64-5.52-5.65
	c-33.31,0-66.62,0-99.94,0c-5.94,0-6.29,0.35-6.29,6.39C520.26-238.91,520.26-208.16,520.26-177.41z"/>
<path class="st0" d="M520.26-177.41c0-30.75,0-61.49,0-92.24c0-6.04,0.36-6.39,6.29-6.39c33.31,0,66.62,0,99.94,0
	c4.92,0,5.52,0.58,5.52,5.65c0.01,62.24,0.01,124.49,0,186.73c0,5.03-0.63,5.64-5.54,5.64c-33.56,0-67.12,0-100.69,0
	c-4.91,0-5.52-0.6-5.52-5.65C520.25-114.92,520.26-146.17,520.26-177.41z M576.19-81.73c3.49,0,6.99,0.06,10.48-0.02
	c5.08-0.11,8.72-3.47,9-8.16c0.29-4.93-2.62-9.08-7.63-9.35c-7.95-0.43-15.96-0.43-23.9,0.02c-4.99,0.28-7.87,4.5-7.53,9.43
	c0.31,4.52,3.9,7.91,8.73,8.05C568.95-81.65,572.57-81.74,576.19-81.73z"/>
<path class="st1" d="M576.19-81.73c-3.62,0-7.24,0.08-10.85-0.02c-4.82-0.14-8.42-3.53-8.73-8.05c-0.34-4.93,2.54-9.14,7.53-9.43
	c7.95-0.45,15.96-0.45,23.9-0.02c5.01,0.27,7.92,4.42,7.63,9.35c-0.28,4.69-3.93,8.05-9,8.16
	C583.17-81.67,579.68-81.73,576.19-81.73z"/>
</svg>
