<?xml version="1.0" encoding="utf-8"?>
<!-- Generator: Adobe Illustrator 25.4.1, SVG Export Plug-In . SVG Version: 6.00 Build 0)  -->
<svg version="1.1" id="Layer_1" xmlns="http://www.w3.org/2000/svg" xmlns:xlink="http://www.w3.org/1999/xlink" x="0px" y="0px"
	 viewBox="0 0 595.28 841.89" style="enable-background:new 0 0 595.28 841.89;" xml:space="preserve">
<style type="text/css">
	.st0{fill:#1EAAE2;}
</style>
<path class="st0" d="M312.46-328c-14.19-1-27.25-6.03-39.77-12.16c-47.43-23.19-83.51-58.33-108.17-104.86
	c-5.24-9.88-9.36-20.62-12.19-31.43c-4.36-16.67-0.14-32.19,10.72-45.54c4.77-5.86,10.38-11.07,15.82-16.35
	c4.01-3.89,8.78-3.94,12.78-0.01c12.64,12.41,25.2,24.91,37.62,37.54c4.23,4.3,3.91,8.87-0.52,13.37
	c-6.72,6.84-13.58,13.55-20.34,20.35c-8.33,8.37-8.98,17.33-1.94,26.8c16.96,22.85,37.12,42.44,60.31,58.94
	c8.51,6.06,17.79,5.34,25.33-2.08c6.55-6.44,12.9-13.09,19.37-19.62c5.65-5.69,9.98-5.69,15.71,0.03
	c11.6,11.57,23.18,23.15,34.75,34.75c5.85,5.87,5.82,10.06-0.14,15.93c-7.1,6.99-13.82,14.42-23.09,18.81
	C330.4-329.58,321.71-327.62,312.46-328z"/>
</svg>
